<svg width="50" height="50" viewBox="0 0 50 50" fill="none" xmlns="http://www.w3.org/2000/svg">
<path d="M25 0C11.215 0 0 11.215 0 25C0 38.785 11.215 50 25 50C38.785 50 50 38.785 50 25C50 11.215 38.785 0 25 0ZM25 45C13.9725 45 5 36.0275 5 25C5 13.9725 13.9725 5 25 5C36.0275 5 45 13.9725 45 25C45 36.0275 36.0275 45 25 45Z" fill="#FAFF00"/>
<path d="M32.5 23.5V25C32.9062 25 33.2578 25.1484 33.5547 25.4453C33.8516 25.7422 34 26.0977 34 26.5117C34 26.9258 33.8516 27.2773 33.5547 27.5664C33.2578 27.8555 32.9062 28 32.5 28H32.4531C32.3906 28.2656 32.2812 28.4766 32.125 28.6328L27.2969 31.7266L32.1484 34.8438C32.3984 35.0938 32.5234 35.3906 32.5234 35.7344C32.5234 36.0781 32.3984 36.375 32.1484 36.625C31.8984 36.875 31.5977 37 31.2461 37C30.8945 37 30.6016 36.875 30.3672 36.625L25 33.2031L19.6328 36.625C19.3828 36.875 19.0859 37 18.7422 37C18.3984 37 18.1016 36.875 17.8516 36.625C17.6016 36.375 17.4766 36.0781 17.4766 35.7344C17.4766 35.3906 17.6016 35.0938 17.8516 34.8438L22.7031 31.7266L17.875 28.6328C17.7188 28.4766 17.6094 28.2656 17.5469 28H17.5C17.0781 28 16.7227 27.8555 16.4336 27.5664C16.1445 27.2773 16 26.9258 16 26.5117C16 26.0977 16.1445 25.7422 16.4336 25.4453C16.7227 25.1484 17.0781 25 17.5 25V23.5C17.0781 23.5 16.7227 23.3555 16.4336 23.0664C16.1445 22.7773 16 22.4219 16 22V16C16 15.5938 16.1445 15.2422 16.4336 14.9453C16.7227 14.6484 17.0781 14.5 17.5 14.5C17.5 14.0938 17.6484 13.7422 17.9453 13.4453C18.2422 13.1484 18.5977 13 19.0117 13C19.4258 13 19.7773 13.1484 20.0664 13.4453C20.3555 13.7422 20.5 14.0938 20.5 14.5H29.5C29.5 14.0938 29.6484 13.7422 29.9453 13.4453C30.2422 13.1484 30.5977 13 31.0117 13C31.4258 13 31.7773 13.1484 32.0664 13.4453C32.3555 13.7422 32.5 14.0938 32.5 14.5C32.9219 14.5 33.2773 14.6484 33.5664 14.9453C33.8555 15.2422 34 15.5938 34 16V22C34 22.4219 33.8516 22.7773 33.5547 23.0664C33.2578 23.3555 32.9062 23.5 32.5 23.5ZM25 30.2734L28.5391 28H21.4375L25 30.2734ZM20.5 23.5V25H29.5V23.5H20.5Z" fill="#FAFF00"/>
</svg>
