<svg width="50" height="50" viewBox="0 0 50 50" fill="none" xmlns="http://www.w3.org/2000/svg">
<path d="M25 0C11.215 0 0 11.215 0 25C0 38.785 11.215 50 25 50C38.785 50 50 38.785 50 25C50 11.215 38.785 0 25 0ZM25 45C13.9725 45 5 36.0275 5 25C5 13.9725 13.9725 5 25 5C36.0275 5 45 13.9725 45 25C45 36.0275 36.0275 45 25 45Z" fill="#FAFF00"/>
<path d="M25 13L27.6942 21.2918H36.4127L29.3593 26.4164L32.0534 34.7082L25 29.5836L17.9466 34.7082L20.6407 26.4164L13.5873 21.2918H22.3058L25 13Z" fill="#FAFF00"/>
</svg>
