<svg width="152" height="36" viewBox="0 0 152 36" fill="none" xmlns="http://www.w3.org/2000/svg">
<path d="M0.8 7.04H7.6L15.68 24.36L23.8 7.04H30.56V35H23.96V20.96L17.28 35H14.08L7.44 20.96V35H0.8V7.04ZM45.1994 35.6C42.826 35.6 40.746 35.1733 38.9594 34.32C37.1727 33.44 35.786 32.24 34.7994 30.72C33.8394 29.1733 33.3594 27.4 33.3594 25.4C33.3594 23.4 33.8394 21.64 34.7994 20.12C35.786 18.5733 37.1727 17.3733 38.9594 16.52C40.746 15.64 42.826 15.2 45.1994 15.2C47.5727 15.2 49.6527 15.64 51.4394 16.52C53.226 17.3733 54.5994 18.5733 55.5594 20.12C56.546 21.64 57.0394 23.4 57.0394 25.4C57.0394 27.4 56.546 29.1733 55.5594 30.72C54.5994 32.24 53.226 33.44 51.4394 34.32C49.6527 35.1733 47.5727 35.6 45.1994 35.6ZM45.1994 30.12C46.6127 30.12 47.7327 29.7067 48.5594 28.88C49.4127 28.0267 49.8394 26.8667 49.8394 25.4C49.8394 23.9333 49.4127 22.7867 48.5594 21.96C47.7327 21.1067 46.6127 20.68 45.1994 20.68C43.786 20.68 42.6527 21.1067 41.7994 21.96C40.9727 22.7867 40.5594 23.9333 40.5594 25.4C40.5594 26.8667 40.9727 28.0267 41.7994 28.88C42.6527 29.7067 43.786 30.12 45.1994 30.12ZM56.4063 15.8H63.4463L67.8063 26.96L72.1263 15.8H79.1663L71.1263 35H64.4463L56.4063 15.8ZM85.7319 13.24C84.6652 13.24 83.7719 12.8933 83.0519 12.2C82.3319 11.5067 81.9719 10.6267 81.9719 9.56C81.9719 8.52 82.3319 7.65333 83.0519 6.96C83.7719 6.24 84.6652 5.88 85.7319 5.88C86.7719 5.88 87.6519 6.24 88.3719 6.96C89.1185 7.65333 89.4919 8.52 89.4919 9.56C89.4919 10.6 89.1185 11.48 88.3719 12.2C87.6519 12.8933 86.7719 13.24 85.7319 13.24ZM82.2119 15.8H89.2519V35H82.2119V15.8ZM104.385 35.6C100.625 35.6 97.6647 34.72 95.5047 32.96C93.3714 31.2 92.3047 28.7067 92.3047 25.48C92.3047 22.3067 93.2514 19.8 95.1447 17.96C97.0647 16.12 99.8247 15.2 103.425 15.2C105.718 15.2 107.678 15.64 109.305 16.52C110.958 17.3733 112.198 18.56 113.025 20.08C113.878 21.5733 114.305 23.2667 114.305 25.16V27.76H98.9847C99.2514 28.8267 99.918 29.6 100.985 30.08C102.051 30.56 103.505 30.8 105.345 30.8C106.598 30.8 107.878 30.6933 109.185 30.48C110.518 30.2667 111.665 29.9733 112.625 29.6V34.24C111.638 34.64 110.398 34.96 108.905 35.2C107.438 35.4667 105.931 35.6 104.385 35.6ZM107.665 23.36C107.558 22.32 107.131 21.5067 106.385 20.92C105.638 20.3333 104.611 20.04 103.305 20.04C102.025 20.04 101.011 20.3467 100.265 20.96C99.518 21.5467 99.0914 22.3467 98.9847 23.36H107.665Z" fill="white"/>
<path d="M129.189 17.5L116.589 0.049997H126.739L134.289 10.5L141.839 0.049997H151.989L139.339 17.5L151.989 35H141.839L134.289 24.55L126.689 35H116.539L129.189 17.5Z" fill="#FAFF00"/>
</svg>
