<svg width="26" height="27" viewBox="0 0 26 27" fill="none" xmlns="http://www.w3.org/2000/svg">
<path d="M11.1188 22.2377C13.5858 22.2372 15.9817 21.4113 17.9249 19.8916L24.0347 26.0014L26 24.0361L19.8902 17.9263C21.4107 15.9829 22.2371 13.5864 22.2377 11.1188C22.2377 4.98819 17.2495 0 11.1188 0C4.98819 0 0 4.98819 0 11.1188C0 17.2495 4.98819 22.2377 11.1188 22.2377ZM11.1188 2.77971C15.7179 2.77971 19.458 6.5198 19.458 11.1188C19.458 15.7179 15.7179 19.458 11.1188 19.458C6.5198 19.458 2.77971 15.7179 2.77971 11.1188C2.77971 6.5198 6.5198 2.77971 11.1188 2.77971Z" fill="white"/>
</svg>
